<?xml version="1.0" encoding="UTF-8"?>
<svg width="462px" height="704px" viewBox="0 0 462 704" version="1.1" xmlns="http://www.w3.org/2000/svg" xmlns:xlink="http://www.w3.org/1999/xlink">
    <!-- Generator: Sketch 49.3 (51167) - http://www.bohemiancoding.com/sketch -->
    <title>basis</title>
    <desc>Created with Sketch.</desc>
    <defs></defs>
    <g id="desktop" stroke="none" stroke-width="1" fill="none" fill-rule="evenodd">
        <g id="basis" fill-rule="nonzero">
            <path d="M395,686.4 L67,686.4 C63,686.4 60.8,681.9 63.1,678.7 L93.3,636.9 C94.2,635.6 95.7,634.9 97.2,634.9 L364.7,634.9 C366.3,634.9 367.7,635.6 368.6,636.9 L398.8,678.7 C401.2,681.9 398.9,686.4 395,686.4 Z" id="XMLID_142_" fill="#D1D3D4"></path>
            <ellipse id="XMLID_502_" fill="#C9C9C9" cx="235.7" cy="660.7" rx="116.5" ry="13.9"></ellipse>
            <path d="M305.2,660.7 L156.8,660.7 L156.8,10.9 C156.8,5.3 161.4,0.7 167,0.7 L295,0.7 C300.6,0.7 305.2,5.3 305.2,10.9 L305.2,660.7 Z" id="XMLID_246_" fill="#BCBEC0"></path>
            <path d="M295,9.5 L167,9.5 C161.4,9.5 156.8,14.1 156.8,19.7 L156.8,660.7 L305.1,660.7 L305.1,19.7 C305.2,14.1 300.6,9.5 295,9.5 Z" id="XMLID_508_" fill="#A7A9AC"></path>
            <path d="M231,574.4 C204.9,574.4 179.9,569.7 156.8,561.2 L156.8,573.5 C179.9,582.1 204.9,586.7 231,586.7 C257.1,586.7 282.1,582 305.2,573.5 L305.2,561.2 C282.1,569.8 257.1,574.4 231,574.4 Z" id="XMLID_501_" fill="#9C9C9D"></path>
            <g id="XMLID_143_" transform="translate(223.000000, 129.000000)">
                <circle id="XMLID_141_" fill="#F2E74F" cx="8" cy="8.3" r="7.4"></circle>
                <g id="XMLID_149_" transform="translate(5.000000, 9.000000)" fill="#F2B137">
                    <path d="M4.2,5.9 C4.2,5.9 4.2,5.9 4.2,5.9 C4.1,5.9 4.1,5.8 4.1,5.8 L5.4,0.9 C5.2,0.9 5.1,1 4.9,1.1 C4.7,1.2 4.6,1.4 4.2,1.4 C3.8,1.4 3.7,1.3 3.5,1.1 C3.3,1 3.2,0.9 2.9,0.9 C2.6,0.9 2.5,1 2.3,1.1 C2.1,1.2 2,1.4 1.6,1.4 C1.2,1.4 1.1,1.3 0.9,1.1 C0.8,1 0.6,0.9 0.4,0.9 L1.7,5.8 C1.7,5.8 1.7,5.9 1.6,5.9 C1.6,5.9 1.5,5.9 1.5,5.8 L0.2,0.8 C0.2,0.8 0.2,0.7 0.2,0.7 C0.2,0.7 0.2,0.7 0.3,0.7 C0.6,0.7 0.8,0.8 1,1 C1.2,1.1 1.3,1.2 1.6,1.2 C1.9,1.2 2,1.1 2.2,1 C2.4,0.9 2.5,0.7 2.9,0.7 C3.2,0.7 3.4,0.8 3.6,1 C3.8,1.1 3.9,1.2 4.2,1.2 C4.5,1.2 4.6,1.1 4.8,1 C5,0.9 5.1,0.7 5.5,0.7 C5.5,0.7 5.6,0.7 5.6,0.7 C5.6,0.7 5.6,0.7 5.6,0.8 L4.2,5.9 C4.3,5.8 4.3,5.9 4.2,5.9 Z" id="XMLID_140_"></path>
                </g>
                <path d="M10.4,19.6 L5.6,19.6 C4.9,19.6 4.3,19 4.3,18.3 L4.3,14.7 L11.6,14.7 L11.6,18.3 C11.7,19.1 11.1,19.6 10.4,19.6 Z" id="XMLID_139_" fill="#ABA7A6"></path>
                <g id="XMLID_146_" transform="translate(3.000000, 17.000000)" fill="#766C66">
                    <path d="M1.3,1.7 C1.1,1.7 0.9,1.6 0.9,1.4 C0.9,1.2 1,1 1.2,1 L8.5,0.3 C8.7,0.3 8.9,0.4 8.9,0.6 C8.9,0.8 8.8,1 8.6,1 L1.3,1.7 C1.4,1.7 1.3,1.7 1.3,1.7 Z" id="XMLID_138_"></path>
                </g>
                <g id="XMLID_144_" transform="translate(3.000000, 15.000000)" fill="#766C66">
                    <path d="M1.3,2.2 C1.1,2.2 0.9,2.1 0.9,1.9 C0.9,1.7 1,1.5 1.2,1.5 L8.5,0.8 C8.7,0.8 8.9,0.9 8.9,1.1 C8.9,1.3 8.8,1.5 8.6,1.5 L1.3,2.2 C1.4,2.2 1.3,2.2 1.3,2.2 Z" id="XMLID_10_"></path>
                </g>
            </g>
            <g id="XMLID_145_" transform="translate(111.000000, 159.000000)">
                <circle id="XMLID_155_" fill="#F2E74F" cx="8.2" cy="8.3" r="7.4"></circle>
                <g id="XMLID_153_" transform="translate(6.000000, 8.000000)" fill="#F2B137">
                    <path d="M6.5,5.3 C6.5,5.3 6.5,5.3 6.5,5.3 C6.4,5.3 6.4,5.3 6.4,5.2 L5.1,0.3 C4.9,0.4 4.9,0.6 4.8,0.7 C4.7,0.9 4.6,1.1 4.3,1.3 C4,1.5 3.8,1.4 3.6,1.4 C3.4,1.4 3.2,1.4 3,1.5 C2.8,1.6 2.7,1.8 2.6,2 C2.5,2.2 2.4,2.4 2.1,2.6 C1.8,2.8 1.6,2.7 1.4,2.7 C1.2,2.7 1.1,2.7 0.9,2.7 L4.5,6.3 C4.5,6.3 4.5,6.4 4.5,6.4 C4.5,6.4 4.4,6.4 4.4,6.4 L0.8,2.8 C0.8,2.8 0.8,2.8 0.8,2.7 C0.8,2.6 0.8,2.6 0.8,2.6 C1.1,2.4 1.3,2.5 1.5,2.5 C1.7,2.5 1.9,2.5 2.1,2.4 C2.3,2.3 2.4,2.1 2.5,1.9 C2.6,1.7 2.7,1.5 3,1.3 C3.3,1.1 3.5,1.2 3.7,1.2 C3.9,1.2 4.1,1.2 4.3,1.1 C4.5,1 4.6,0.8 4.7,0.6 C4.8,0.4 4.9,0.2 5.2,2.84217094e-14 C5.2,2.84217094e-14 5.3,2.84217094e-14 5.3,2.84217094e-14 C5.3,2.84217094e-14 5.3,2.84217094e-14 5.4,0.1 L6.5,5.3 C6.6,5.3 6.6,5.3 6.5,5.3 Z" id="XMLID_154_"></path>
                </g>
                <path d="M15.9,16.9 L11.7,19.3 C11.1,19.6 10.3,19.4 10,18.8 L8.2,15.7 L14.5,12 L16.3,15.1 C16.7,15.8 16.5,16.5 15.9,16.9 Z" id="XMLID_152_" fill="#ABA7A6"></path>
                <g id="XMLID_150_" transform="translate(9.000000, 14.000000)" fill="#766C66">
                    <path d="M1.2,5.1 C1,5.2 0.8,5.2 0.7,5 C0.6,4.8 0.6,4.6 0.8,4.5 L6.8,0.2 C7,0.1 7.2,0.1 7.3,0.3 C7.4,0.5 7.4,0.7 7.2,0.8 L1.2,5.1 C1.3,5.1 1.2,5.1 1.2,5.1 Z" id="XMLID_151_"></path>
                </g>
                <g id="XMLID_147_" transform="translate(8.000000, 12.000000)" fill="#766C66">
                    <path d="M1.5,5.8 C1.3,5.9 1.1,5.9 1,5.7 C0.9,5.5 0.9,5.3 1.1,5.2 L7.1,0.9 C7.3,0.8 7.5,0.8 7.6,1 C7.7,1.2 7.7,1.4 7.5,1.5 L1.5,5.8 C1.5,5.8 1.5,5.8 1.5,5.8 Z" id="XMLID_148_"></path>
                </g>
            </g>
            <g id="XMLID_156_" transform="translate(29.000000, 241.000000)">
                <circle id="XMLID_164_" fill="#F2E74F" cx="8.3" cy="8.1" r="7.4"></circle>
                <g id="XMLID_162_" transform="translate(8.000000, 6.000000)" fill="#F2B137">
                    <path d="M6.6,4.3 C6.6,4.3 6.6,4.3 6.6,4.3 C6.6,4.4 6.5,4.4 6.5,4.3 L2.9,0.7 C2.8,0.9 2.8,1 2.9,1.2 C2.9,1.4 3,1.6 2.8,1.9 C2.6,2.2 2.4,2.3 2.2,2.4 C2,2.5 1.9,2.5 1.7,2.8 C1.6,3 1.6,3.2 1.6,3.4 C1.6,3.6 1.7,3.8 1.5,4.1 C1.3,4.4 1.1,4.5 0.9,4.6 C0.7,4.7 0.6,4.7 0.5,4.9 L5.4,6.2 C5.4,6.2 5.5,6.3 5.5,6.3 C5.5,6.3 5.4,6.4 5.4,6.4 L0.4,5.1 C0.4,5.1 0.4,5.1 0.3,5 C0.3,5 0.3,4.9 0.3,4.9 C0.5,4.6 0.7,4.5 0.9,4.4 C1.1,4.3 1.2,4.3 1.4,4 C1.5,3.8 1.5,3.6 1.5,3.4 C1.5,3.2 1.4,3 1.6,2.7 C1.8,2.4 2,2.3 2.2,2.2 C2.4,2.1 2.5,2.1 2.7,1.8 C2.8,1.6 2.8,1.4 2.8,1.2 C2.8,1 2.7,0.8 2.9,0.5 C2.9,0.5 2.9,0.5 3,0.5 C3,0.5 3.1,0.5 3.1,0.5 L6.7,4.1 C6.7,4.2 6.7,4.3 6.6,4.3 Z" id="XMLID_163_"></path>
                </g>
                <path d="M19.4,11.7 L17,15.9 C16.7,16.5 15.9,16.7 15.3,16.4 L12.2,14.6 L15.9,8.3 L19,10.1 C19.5,10.3 19.7,11.1 19.4,11.7 Z" id="XMLID_161_" fill="#ABA7A6"></path>
                <g id="XMLID_159_" transform="translate(14.000000, 9.000000)" fill="#766C66">
                    <path d="M1.5,7.5 C1.4,7.7 1.2,7.7 1,7.7 C0.8,7.6 0.7,7.4 0.8,7.2 L3.9,0.5 C4,0.3 4.2,0.2 4.4,0.3 C4.6,0.4 4.7,0.6 4.6,0.8 L1.5,7.5 C1.6,7.5 1.6,7.5 1.5,7.5 Z" id="XMLID_160_"></path>
                </g>
                <g id="XMLID_157_" transform="translate(13.000000, 8.000000)" fill="#766C66">
                    <path d="M1.3,7.7 C1.2,7.9 1,7.9 0.8,7.9 C0.6,7.8 0.5,7.6 0.6,7.4 L3.7,0.7 C3.8,0.5 4,0.4 4.2,0.5 C4.4,0.6 4.5,0.8 4.4,1 L1.3,7.7 C1.3,7.7 1.3,7.7 1.3,7.7 Z" id="XMLID_158_"></path>
                </g>
            </g>
            <g id="XMLID_165_" transform="translate(0.000000, 353.000000)">
                <circle id="XMLID_173_" fill="#F2E74F" cx="7.4" cy="7.9" r="7.4"></circle>
                <g id="XMLID_171_" transform="translate(8.000000, 5.000000)" fill="#F2B137">
                    <path d="M6,1.7 C6,1.7 5.9,1.7 6,1.7 C6,1.8 5.9,1.8 5.9,1.8 L1,0.5 C1,0.7 1.1,0.8 1.2,1 C1.3,1.2 1.5,1.3 1.5,1.7 C1.5,2 1.4,2.2 1.2,2.4 C1.1,2.6 1,2.7 1,3 C1,3.3 1.1,3.4 1.2,3.6 C1.3,3.8 1.5,3.9 1.5,4.3 C1.5,4.6 1.4,4.8 1.2,5 C1.1,5.1 1,5.3 1,5.5 L5.9,4.2 C5.9,4.2 6,4.2 6,4.3 C6,4.3 6,4.4 5.9,4.4 L0.9,5.7 C0.9,5.7 0.8,5.7 0.8,5.7 C0.8,5.7 0.8,5.7 0.8,5.6 C0.8,5.3 0.9,5.1 1.1,4.9 C1.2,4.7 1.3,4.6 1.3,4.3 C1.3,4 1.2,3.9 1.1,3.7 C1,3.5 0.8,3.4 0.8,3 C0.8,2.7 0.9,2.5 1.1,2.3 C1.2,2.1 1.3,2 1.3,1.7 C1.3,1.4 1.2,1.3 1.1,1.1 C1,0.9 0.8,0.8 0.8,0.4 C0.8,0.4 0.8,0.3 0.8,0.3 C0.8,0.3 0.8,0.3 0.9,0.3 L6,1.7 C5.9,1.6 6,1.6 6,1.7 Z" id="XMLID_172_"></path>
                </g>
                <path d="M18.7,5.5 L18.7,10.3 C18.7,11 18.1,11.6 17.4,11.6 L13.8,11.6 L13.8,4.3 L17.4,4.3 C18.2,4.3 18.7,4.8 18.7,5.5 Z" id="XMLID_170_" fill="#ABA7A6"></path>
                <g id="XMLID_168_" transform="translate(16.000000, 4.000000)" fill="#766C66">
                    <path d="M1.8,7.6 C1.8,7.8 1.7,8 1.5,8 C1.3,8 1.1,7.9 1.1,7.7 L0.4,0.4 C0.4,0.2 0.5,0 0.7,0 C0.9,0 1.1,0.1 1.1,0.3 L1.8,7.6 C1.8,7.5 1.8,7.6 1.8,7.6 Z" id="XMLID_169_"></path>
                </g>
                <g id="XMLID_166_" transform="translate(14.000000, 4.000000)" fill="#766C66">
                    <path d="M2.3,7.6 C2.3,7.8 2.2,8 2,8 C1.8,8 1.6,7.9 1.6,7.7 L0.9,0.4 C0.9,0.2 1,0 1.2,0 C1.4,0 1.6,0.1 1.6,0.3 L2.3,7.6 C2.3,7.5 2.3,7.6 2.3,7.6 Z" id="XMLID_167_"></path>
                </g>
            </g>
            <g id="XMLID_174_" transform="translate(29.000000, 464.000000)">
                <circle id="XMLID_182_" fill="#F2E74F" cx="8.3" cy="8.7" r="7.4"></circle>
                <g id="XMLID_180_" transform="translate(8.000000, 4.000000)" fill="#F2B137">
                    <path d="M5.4,0.4 C5.4,0.4 5.4,0.4 5.4,0.4 C5.4,0.5 5.4,0.5 5.3,0.5 L0.4,1.8 C0.5,2 0.7,2 0.8,2.1 C1,2.2 1.2,2.3 1.4,2.6 C1.6,2.9 1.5,3.1 1.5,3.3 C1.5,3.5 1.5,3.7 1.6,3.9 C1.7,4.1 1.9,4.2 2.1,4.3 C2.3,4.4 2.5,4.5 2.7,4.8 C2.9,5.1 2.8,5.3 2.8,5.5 C2.8,5.7 2.8,5.8 2.8,6 L6.4,2.4 C6.4,2.4 6.5,2.4 6.5,2.4 C6.5,2.4 6.5,2.5 6.5,2.5 L2.9,6.1 C2.9,6.1 2.9,6.1 2.8,6.1 C2.8,6.1 2.7,6.1 2.7,6.1 C2.5,5.8 2.6,5.6 2.6,5.4 C2.6,5.2 2.6,5 2.5,4.8 C2.4,4.6 2.2,4.5 2,4.4 C1.8,4.3 1.6,4.2 1.4,3.9 C1.2,3.6 1.3,3.4 1.3,3.2 C1.3,3 1.3,2.8 1.2,2.6 C1.1,2.4 0.9,2.3 0.7,2.2 C0.5,2.1 0.3,2 0.1,1.7 C0.1,1.7 0.1,1.6 0.1,1.6 C0.1,1.6 0.1,1.6 0.2,1.5 L5.4,0.4 C5.4,0.3 5.4,0.3 5.4,0.4 Z" id="XMLID_181_"></path>
                </g>
                <path d="M17,1 L19.4,5.2 C19.7,5.8 19.5,6.6 18.9,6.9 L15.8,8.7 L12.1,2.4 L15.2,0.6 C15.9,0.2 16.6,0.4 17,1 Z" id="XMLID_179_" fill="#ABA7A6"></path>
                <g id="XMLID_177_" transform="translate(14.000000, 0.000000)" fill="#766C66">
                    <path d="M5.2,6.7 C5.3,6.9 5.3,7.1 5.1,7.2 C4.9,7.3 4.7,7.3 4.6,7.1 L0.3,1.1 C0.2,0.9 0.2,0.7 0.4,0.6 C0.6,0.5 0.8,0.5 0.9,0.7 L5.2,6.7 C5.2,6.6 5.2,6.7 5.2,6.7 Z" id="XMLID_178_"></path>
                </g>
                <g id="XMLID_175_" transform="translate(12.000000, 1.000000)" fill="#766C66">
                    <path d="M5.9,6.4 C6,6.6 6,6.8 5.8,6.9 C5.6,7 5.4,7 5.3,6.8 L1,0.8 C0.9,0.6 0.9,0.4 1.1,0.3 C1.3,0.2 1.5,0.2 1.6,0.4 L5.9,6.4 C5.9,6.4 5.9,6.4 5.9,6.4 Z" id="XMLID_176_"></path>
                </g>
            </g>
            <g id="XMLID_183_" transform="translate(111.000000, 543.000000)">
                <circle id="XMLID_191_" fill="#F2E74F" cx="8.2" cy="11.6" r="7.4"></circle>
                <g id="XMLID_189_" transform="translate(6.000000, 5.000000)" fill="#F2B137">
                    <path d="M4.4,0.3 C4.4,0.3 4.4,0.3 4.4,0.3 C4.5,0.3 4.5,0.4 4.4,0.4 L0.8,4 C1,4.1 1.1,4.1 1.3,4 C1.5,4 1.7,3.9 2,4.1 C2.3,4.3 2.4,4.5 2.5,4.7 C2.6,4.9 2.6,5 2.9,5.2 C3.1,5.3 3.3,5.3 3.5,5.3 C3.7,5.3 3.9,5.2 4.2,5.4 C4.5,5.6 4.6,5.8 4.7,6 C4.8,6.2 4.8,6.3 5,6.4 L6.3,1.5 C6.3,1.5 6.4,1.4 6.4,1.4 C6.4,1.4 6.5,1.5 6.5,1.5 L5.2,6.5 C5.2,6.5 5.2,6.5 5.1,6.6 C5.1,6.6 5,6.6 5,6.6 C4.7,6.4 4.6,6.2 4.5,6 C4.4,5.8 4.4,5.7 4.1,5.5 C3.9,5.4 3.7,5.4 3.5,5.4 C3.3,5.4 3.1,5.5 2.8,5.3 C2.5,5.1 2.4,4.9 2.3,4.7 C2.2,4.5 2.2,4.4 1.9,4.2 C1.7,4.1 1.5,4.1 1.3,4.1 C1.1,4.1 0.9,4.2 0.6,4 C0.6,4 0.6,4 0.6,3.9 C0.6,3.8 0.6,3.8 0.6,3.8 L4.2,0.2 C4.3,0.3 4.4,0.2 4.4,0.3 Z" id="XMLID_190_"></path>
                </g>
                <path d="M11.8,0.5 L16,2.9 C16.6,3.2 16.8,4 16.5,4.6 L14.7,7.7 L8.4,4 L10.2,0.9 C10.4,0.4 11.2,0.2 11.8,0.5 Z" id="XMLID_188_" fill="#ABA7A6"></path>
                <g id="XMLID_186_" transform="translate(9.000000, 1.000000)" fill="#766C66">
                    <path d="M7.6,3.4 C7.8,3.5 7.8,3.7 7.8,3.9 C7.7,4.1 7.5,4.2 7.3,4.1 L0.6,1 C0.4,0.9 0.3,0.7 0.4,0.5 C0.5,0.3 0.7,0.2 0.9,0.3 L7.6,3.4 C7.6,3.3 7.6,3.3 7.6,3.4 Z" id="XMLID_187_"></path>
                </g>
                <g id="XMLID_184_" transform="translate(8.000000, 2.000000)" fill="#766C66">
                    <path d="M7.8,3.7 C8,3.8 8,4 8,4.2 C7.9,4.4 7.7,4.5 7.5,4.4 L0.8,1.3 C0.6,1.2 0.5,1 0.6,0.8 C0.7,0.6 0.9,0.5 1.1,0.6 L7.8,3.7 C7.8,3.6 7.8,3.6 7.8,3.7 Z" id="XMLID_185_"></path>
                </g>
            </g>
            <g id="XMLID_192_" transform="translate(223.000000, 573.000000)">
                <circle id="XMLID_200_" fill="#F2E74F" cx="8" cy="11.5" r="7.4"></circle>
                <g id="XMLID_198_" transform="translate(5.000000, 5.000000)" fill="#F2B137">
                    <path d="M1.8,0 C1.8,0 1.8,0 1.8,0 C1.9,0 1.9,0.1 1.9,0.1 L0.6,5 C0.8,5 0.9,4.9 1.1,4.8 C1.3,4.7 1.4,4.5 1.8,4.5 C2.1,4.5 2.3,4.6 2.5,4.8 C2.7,4.9 2.8,5 3.1,5 C3.4,5 3.5,4.9 3.7,4.8 C3.9,4.7 4,4.5 4.4,4.5 C4.8,4.5 4.9,4.6 5.1,4.8 C5.2,4.9 5.4,5 5.6,5 L4.3,0.1 C4.3,0.1 4.3,0 4.4,0 C4.4,0 4.5,0 4.5,0.1 L5.8,5.1 C5.8,5.1 5.8,5.2 5.8,5.2 C5.8,5.2 5.8,5.2 5.7,5.2 C5.4,5.2 5.2,5.1 5,4.9 C4.8,4.8 4.7,4.7 4.4,4.7 C4.1,4.7 4,4.8 3.8,4.9 C3.6,5 3.5,5.2 3.1,5.2 C2.7,5.2 2.6,5.1 2.4,4.9 C2.2,4.8 2.1,4.7 1.8,4.7 C1.5,4.7 1.4,4.8 1.2,4.9 C1,5 0.9,5.2 0.5,5.2 C0.5,5.2 0.4,5.2 0.4,5.2 C0.4,5.2 0.4,5.2 0.4,5.1 L1.8,0 C1.7,0 1.7,0 1.8,0 Z" id="XMLID_199_"></path>
                </g>
                <path d="M5.6,0.2 L10.4,0.2 C11.1,0.2 11.7,0.8 11.7,1.5 L11.7,5.1 L4.4,5.1 L4.4,1.5 C4.3,0.7 4.9,0.2 5.6,0.2 Z" id="XMLID_197_" fill="#ABA7A6"></path>
                <g id="XMLID_195_" transform="translate(4.000000, 1.000000)" fill="#766C66">
                    <path d="M7.7,0.1 C7.9,0.1 8.1,0.2 8.1,0.4 C8.1,0.6 8,0.8 7.8,0.8 L0.5,1.5 C0.3,1.5 0.1,1.4 0.1,1.2 C0.1,1 0.2,0.8 0.4,0.8 L7.7,0.1 C7.6,0.1 7.7,0.1 7.7,0.1 Z" id="XMLID_196_"></path>
                </g>
                <g id="XMLID_193_" transform="translate(4.000000, 2.000000)" fill="#766C66">
                    <path d="M7.7,0.6 C7.9,0.6 8.1,0.7 8.1,0.9 C8.1,1.1 8,1.3 7.8,1.3 L0.5,2 C0.3,2 0.1,1.9 0.1,1.7 C0.1,1.5 0.2,1.3 0.4,1.3 L7.7,0.6 C7.6,0.6 7.7,0.6 7.7,0.6 Z" id="XMLID_194_"></path>
                </g>
            </g>
            <g id="XMLID_201_" transform="translate(334.000000, 543.000000)">
                <circle id="XMLID_209_" fill="#F2E74F" cx="8.8" cy="11.6" r="7.4"></circle>
                <g id="XMLID_207_" transform="translate(4.000000, 5.000000)" fill="#F2B137">
                    <path d="M0.5,1.5 C0.5,1.5 0.5,1.5 0.5,1.5 C0.6,1.5 0.6,1.5 0.6,1.6 L1.9,6.5 C2.1,6.4 2.1,6.2 2.2,6.1 C2.3,5.9 2.4,5.7 2.7,5.5 C3,5.3 3.2,5.4 3.4,5.4 C3.6,5.4 3.8,5.4 4,5.3 C4.2,5.2 4.3,5 4.4,4.8 C4.5,4.6 4.6,4.4 4.9,4.2 C5.2,4 5.4,4.1 5.6,4.1 C5.8,4.1 5.9,4.1 6.1,4.1 L2.5,0.5 C2.5,0.5 2.5,0.4 2.5,0.4 C2.5,0.4 2.6,0.4 2.6,0.4 L6.2,4 C6.2,4 6.2,4 6.2,4.1 C6.2,4.2 6.2,4.2 6.2,4.2 C5.9,4.4 5.7,4.3 5.5,4.3 C5.3,4.3 5.1,4.3 4.9,4.4 C4.7,4.5 4.6,4.7 4.5,4.9 C4.4,5.1 4.3,5.3 4,5.5 C3.7,5.7 3.5,5.6 3.3,5.6 C3.1,5.6 2.9,5.6 2.7,5.7 C2.5,5.8 2.4,6 2.3,6.2 C2.2,6.4 2.1,6.6 1.8,6.8 C1.8,6.8 1.7,6.8 1.7,6.8 C1.7,6.8 1.7,6.8 1.6,6.7 L0.5,1.5 C0.4,1.5 0.4,1.5 0.5,1.5 Z" id="XMLID_208_"></path>
                </g>
                <path d="M1.1,2.9 L5.3,0.5 C5.9,0.2 6.7,0.4 7,1 L8.8,4.1 L2.5,7.8 L0.7,4.7 C0.3,4 0.5,3.3 1.1,2.9 Z" id="XMLID_206_" fill="#ABA7A6"></path>
                <g id="XMLID_204_" fill="#766C66">
                    <path d="M6.8,0.7 C7,0.6 7.2,0.6 7.3,0.8 C7.4,1 7.4,1.2 7.2,1.3 L1.2,5.6 C1,5.7 0.8,5.7 0.7,5.5 C0.6,5.3 0.6,5.1 0.8,5 L6.8,0.7 C6.7,0.7 6.8,0.7 6.8,0.7 Z" id="XMLID_205_"></path>
                </g>
                <g id="XMLID_202_" transform="translate(1.000000, 1.000000)" fill="#766C66">
                    <path d="M6.5,1 C6.7,0.9 6.9,0.9 7,1.1 C7.1,1.3 7.1,1.5 6.9,1.6 L0.9,5.9 C0.7,6 0.5,6 0.4,5.8 C0.3,5.6 0.3,5.4 0.5,5.3 L6.5,1 C6.5,1 6.5,1 6.5,1 Z" id="XMLID_203_"></path>
                </g>
            </g>
            <g id="XMLID_210_" transform="translate(413.000000, 464.000000)">
                <circle id="XMLID_218_" fill="#F2E74F" cx="11.7" cy="8.7" r="7.4"></circle>
                <g id="XMLID_216_" transform="translate(5.000000, 4.000000)" fill="#F2B137">
                    <path d="M0.4,2.5 C0.4,2.5 0.4,2.5 0.4,2.5 C0.4,2.4 0.5,2.4 0.5,2.5 L4.1,6.1 C4.2,5.9 4.2,5.8 4.1,5.6 C4.1,5.4 4,5.2 4.2,4.9 C4.4,4.6 4.6,4.5 4.8,4.4 C5,4.3 5.1,4.3 5.3,4 C5.4,3.8 5.4,3.6 5.4,3.4 C5.4,3.2 5.3,3 5.5,2.7 C5.7,2.4 5.9,2.3 6.1,2.2 C6.3,2.1 6.4,2.1 6.5,1.9 L1.6,0.6 C1.6,0.6 1.5,0.5 1.5,0.5 C1.5,0.5 1.6,0.4 1.6,0.4 L6.6,1.7 C6.6,1.7 6.6,1.7 6.7,1.8 C6.7,1.8 6.7,1.9 6.7,1.9 C6.5,2.2 6.3,2.3 6.1,2.4 C5.9,2.5 5.8,2.5 5.6,2.8 C5.5,3 5.5,3.2 5.5,3.4 C5.5,3.6 5.6,3.8 5.4,4.1 C5.2,4.4 5,4.5 4.8,4.6 C4.6,4.7 4.5,4.7 4.3,5 C4.2,5.2 4.2,5.4 4.2,5.6 C4.2,5.8 4.3,6 4.1,6.3 C4.1,6.3 4.1,6.3 4,6.3 C4,6.3 3.9,6.3 3.9,6.3 L0.3,2.7 C0.3,2.6 0.3,2.5 0.4,2.5 Z" id="XMLID_217_"></path>
                </g>
                <path d="M0.6,5.1 L3,0.9 C3.3,0.3 4.1,0.1 4.7,0.4 L7.8,2.2 L4.1,8.5 L1,6.7 C0.5,6.5 0.3,5.7 0.6,5.1 Z" id="XMLID_215_" fill="#ABA7A6"></path>
                <g id="XMLID_213_" transform="translate(1.000000, 0.000000)" fill="#766C66">
                    <path d="M3.5,0.3 C3.6,0.1 3.8,0.1 4,0.1 C4.2,0.2 4.3,0.4 4.2,0.6 L1.1,7.3 C1,7.5 0.8,7.6 0.6,7.5 C0.4,7.4 0.3,7.2 0.4,7 L3.5,0.3 C3.4,0.3 3.4,0.3 3.5,0.3 Z" id="XMLID_214_"></path>
                </g>
                <g id="XMLID_211_" transform="translate(2.000000, 0.000000)" fill="#766C66">
                    <path d="M3.7,1.1 C3.8,0.9 4,0.9 4.2,0.9 C4.4,1 4.5,1.2 4.4,1.4 L1.3,8.1 C1.2,8.3 1,8.4 0.8,8.3 C0.6,8.2 0.5,8 0.6,7.8 L3.7,1.1 C3.7,1.1 3.7,1.1 3.7,1.1 Z" id="XMLID_212_"></path>
                </g>
            </g>
            <g id="XMLID_219_" transform="translate(443.000000, 353.000000)">
                <circle id="XMLID_227_" fill="#F2E74F" cx="11.6" cy="7.9" r="7.4"></circle>
                <g id="XMLID_225_" transform="translate(5.000000, 5.000000)" fill="#F2B137">
                    <path d="M0,4.1 C0,4.1 0.1,4.1 0,4.1 C0,4 0.1,4 0.1,4 L5,5.3 C5,5.1 4.9,5 4.8,4.8 C4.7,4.6 4.5,4.5 4.5,4.1 C4.5,3.8 4.6,3.6 4.8,3.4 C4.9,3.2 5,3.1 5,2.8 C5,2.5 4.9,2.4 4.8,2.2 C4.7,2 4.5,1.9 4.5,1.5 C4.5,1.1 4.6,1 4.8,0.8 C4.9,0.7 5,0.5 5,0.3 L0.1,1.6 C0.1,1.6 0,1.6 0,1.5 C0,1.5 0,1.4 0.1,1.4 L5.1,0.1 C5.1,0.1 5.2,0.1 5.2,0.1 C5.2,0.1 5.2,0.1 5.2,0.2 C5.2,0.5 5.1,0.7 4.9,0.9 C4.8,1.1 4.7,1.2 4.7,1.5 C4.7,1.8 4.8,1.9 4.9,2.1 C5,2.3 5.2,2.4 5.2,2.8 C5.2,3.1 5.1,3.3 4.9,3.5 C4.8,3.7 4.7,3.8 4.7,4.1 C4.7,4.4 4.8,4.5 4.9,4.7 C5,4.9 5.2,5 5.2,5.4 C5.2,5.4 5.2,5.5 5.2,5.5 C5.2,5.5 5.2,5.5 5.1,5.5 L0,4.1 C0.1,4.2 0,4.2 0,4.1 Z" id="XMLID_226_"></path>
                </g>
                <path d="M0.3,10.3 L0.3,5.5 C0.3,4.8 0.9,4.2 1.6,4.2 L5.2,4.2 L5.2,11.5 L1.6,11.5 C0.8,11.6 0.3,11 0.3,10.3 Z" id="XMLID_224_" fill="#ABA7A6"></path>
                <g id="XMLID_222_" transform="translate(1.000000, 3.000000)" fill="#766C66">
                    <path d="M0.2,1.2 C0.2,1 0.3,0.8 0.5,0.8 C0.7,0.8 0.9,0.9 0.9,1.1 L1.6,8.4 C1.6,8.6 1.5,8.8 1.3,8.8 C1.1,8.8 0.9,8.7 0.9,8.5 L0.2,1.2 C0.2,1.3 0.2,1.2 0.2,1.2 Z" id="XMLID_223_"></path>
                </g>
                <g id="XMLID_220_" transform="translate(2.000000, 3.000000)" fill="#766C66">
                    <path d="M0.7,1.2 C0.7,1 0.8,0.8 1,0.8 C1.2,0.8 1.4,0.9 1.4,1.1 L2.1,8.4 C2.1,8.6 2,8.8 1.8,8.8 C1.6,8.8 1.4,8.7 1.4,8.5 L0.7,1.2 C0.7,1.3 0.7,1.2 0.7,1.2 Z" id="XMLID_221_"></path>
                </g>
            </g>
            <g id="XMLID_228_" transform="translate(413.000000, 241.000000)">
                <circle id="XMLID_236_" fill="#F2E74F" cx="11.7" cy="8.1" r="7.4"></circle>
                <g id="XMLID_234_" transform="translate(5.000000, 6.000000)" fill="#F2B137">
                    <path d="M1.6,6.4 C1.6,6.4 1.6,6.4 1.6,6.4 C1.6,6.3 1.6,6.3 1.7,6.3 L6.6,5 C6.5,4.8 6.3,4.8 6.2,4.7 C6,4.6 5.8,4.5 5.6,4.2 C5.4,3.9 5.5,3.7 5.5,3.5 C5.5,3.3 5.5,3.1 5.4,2.9 C5.3,2.7 5.1,2.6 4.9,2.5 C4.7,2.4 4.5,2.3 4.3,2 C4.1,1.7 4.2,1.5 4.2,1.3 C4.2,1.1 4.2,1 4.2,0.8 L0.6,4.4 C0.6,4.4 0.5,4.4 0.5,4.4 C0.5,4.4 0.5,4.3 0.5,4.3 L4.1,0.7 C4.1,0.7 4.1,0.7 4.2,0.7 C4.2,0.7 4.3,0.7 4.3,0.7 C4.5,1 4.4,1.2 4.4,1.4 C4.4,1.6 4.4,1.8 4.5,2 C4.6,2.2 4.8,2.3 5,2.4 C5.2,2.5 5.4,2.6 5.6,2.9 C5.8,3.2 5.7,3.4 5.7,3.6 C5.7,3.8 5.7,4 5.8,4.2 C5.9,4.4 6.1,4.5 6.3,4.6 C6.5,4.7 6.7,4.8 6.9,5.1 C6.9,5.1 6.9,5.2 6.9,5.2 C6.9,5.2 6.9,5.2 6.8,5.3 L1.6,6.4 C1.6,6.5 1.6,6.5 1.6,6.4 Z" id="XMLID_235_"></path>
                </g>
                <path d="M3,15.8 L0.6,11.6 C0.3,11 0.5,10.2 1.1,9.9 L4.2,8.1 L7.9,14.4 L4.8,16.2 C4.1,16.7 3.4,16.4 3,15.8 Z" id="XMLID_233_" fill="#ABA7A6"></path>
                <g id="XMLID_231_" transform="translate(0.000000, 9.000000)" fill="#766C66">
                    <path d="M0.8,1.1 C0.7,0.9 0.7,0.7 0.9,0.6 C1.1,0.5 1.3,0.5 1.4,0.7 L5.7,6.7 C5.8,6.9 5.8,7.1 5.6,7.2 C5.4,7.3 5.2,7.3 5.1,7.1 L0.8,1.1 C0.8,1.2 0.8,1.1 0.8,1.1 Z" id="XMLID_232_"></path>
                </g>
                <g id="XMLID_229_" transform="translate(2.000000, 8.000000)" fill="#766C66">
                    <path d="M0.1,1.4 C-1.25316424e-14,1.2 -1.25316424e-14,1 0.2,0.9 C0.4,0.8 0.6,0.8 0.7,1 L5,7 C5.1,7.2 5.1,7.4 4.9,7.5 C4.7,7.6 4.5,7.6 4.4,7.4 L0.1,1.4 C0.1,1.4 0.1,1.4 0.1,1.4 Z" id="XMLID_230_"></path>
                </g>
            </g>
            <g id="XMLID_237_" transform="translate(334.000000, 159.000000)">
                <circle id="XMLID_245_" fill="#F2E74F" cx="8.8" cy="8.3" r="7.4"></circle>
                <g id="XMLID_243_" transform="translate(4.000000, 8.000000)" fill="#F2B137">
                    <path d="M2.6,6.5 C2.6,6.5 2.6,6.5 2.6,6.5 C2.5,6.5 2.5,6.4 2.6,6.4 L6.2,2.8 C6,2.7 5.9,2.7 5.7,2.8 C5.5,2.8 5.3,2.9 5,2.7 C4.7,2.5 4.6,2.3 4.5,2.1 C4.4,1.9 4.4,1.8 4.1,1.6 C3.9,1.5 3.7,1.5 3.5,1.5 C3.3,1.5 3.1,1.6 2.8,1.4 C2.5,1.2 2.4,1 2.3,0.8 C2.2,0.6 2.2,0.5 2,0.4 L0.7,5.3 C0.7,5.3 0.6,5.4 0.6,5.4 C0.6,5.4 0.5,5.3 0.5,5.3 L1.8,0.3 C1.8,0.3 1.8,0.3 1.9,0.2 C1.9,0.2 2,0.2 2,0.2 C2.3,0.4 2.4,0.6 2.5,0.8 C2.6,1 2.6,1.1 2.9,1.3 C3.1,1.4 3.3,1.4 3.5,1.4 C3.7,1.4 3.9,1.3 4.2,1.5 C4.5,1.7 4.6,1.9 4.7,2.1 C4.8,2.3 4.8,2.4 5.1,2.6 C5.3,2.7 5.5,2.7 5.7,2.7 C5.9,2.7 6.1,2.6 6.4,2.8 C6.4,2.8 6.4,2.8 6.4,2.9 C6.4,3 6.4,3 6.4,3 L2.8,6.6 C2.7,6.6 2.6,6.6 2.6,6.5 Z" id="XMLID_244_"></path>
                </g>
                <path d="M5.2,19.3 L1,16.9 C0.4,16.6 0.2,15.8 0.5,15.2 L2.3,12.1 L8.6,15.8 L6.8,18.9 C6.6,19.4 5.8,19.6 5.2,19.3 Z" id="XMLID_242_" fill="#ABA7A6"></path>
                <g id="XMLID_240_" transform="translate(0.000000, 14.000000)" fill="#766C66">
                    <path d="M0.4,1.5 C0.2,1.4 0.2,1.2 0.2,1 C0.3,0.8 0.5,0.7 0.7,0.8 L7.4,3.9 C7.6,4 7.7,4.2 7.6,4.4 C7.5,4.6 7.3,4.7 7.1,4.6 L0.4,1.5 C0.4,1.5 0.4,1.5 0.4,1.5 Z" id="XMLID_241_"></path>
                </g>
                <g id="XMLID_238_" transform="translate(1.000000, 13.000000)" fill="#766C66">
                    <path d="M0.2,1.2 C0,1.1 0,0.9 0,0.7 C0.1,0.5 0.3,0.4 0.5,0.5 L7.2,3.6 C7.4,3.7 7.5,3.9 7.4,4.1 C7.3,4.3 7.1,4.4 6.9,4.3 L0.2,1.2 C0.2,1.2 0.2,1.2 0.2,1.2 Z" id="XMLID_239_"></path>
                </g>
            </g>
            <circle id="XMLID_1_" fill="#DDC69C" cx="231" cy="360.9" r="213.5"></circle>
            <circle id="XMLID_4_" fill="#F2DABD" cx="231" cy="360.9" r="201.2"></circle>
            <g id="XMLID_9_" transform="translate(224.000000, 153.000000)">
                <circle id="XMLID_5_" fill="#979C9C" cx="7" cy="6.7" r="6.6"></circle>
                <circle id="XMLID_8_" fill="#808285" cx="7" cy="6.7" r="5.9"></circle>
                <circle id="XMLID_6_" fill="#F2C333" cx="7" cy="6.7" r="5.1"></circle>
                <path d="M10.3,7.3 C9.4,7.2 9.2,6.2 7,6.2 C4.8,6.2 4.6,7.2 3.7,7.3 C2.5,7.5 2.7,2.9 7,2.8 C11.3,2.9 11.5,7.5 10.3,7.3 Z" id="XMLID_7_" fill="#F2E74F"></path>
            </g>
            <g id="XMLID_11_" transform="translate(172.000000, 160.000000)">
                <circle id="XMLID_15_" fill="#979C9C" cx="6.9" cy="6.6" r="6.6"></circle>
                <circle id="XMLID_14_" fill="#808285" cx="6.9" cy="6.6" r="5.9"></circle>
                <circle id="XMLID_13_" fill="#F2C333" cx="6.9" cy="6.6" r="5.1"></circle>
                <path d="M9.5,8.7 C8.8,8.2 9.1,7.2 7.2,6.1 C5.3,5 4.6,5.7 3.8,5.4 C2.7,5 5.1,1.1 8.9,3.2 C12.6,5.4 10.4,9.5 9.5,8.7 Z" id="XMLID_12_" fill="#F2E74F"></path>
            </g>
            <g id="XMLID_28_" transform="translate(123.000000, 180.000000)">
                <circle id="XMLID_32_" fill="#979C9C" cx="7.4" cy="6.7" r="6.6"></circle>
                <circle id="XMLID_31_" fill="#808285" cx="7.4" cy="6.7" r="5.9"></circle>
                <circle id="XMLID_30_" fill="#F2C333" cx="7.4" cy="6.7" r="5.1"></circle>
                <path d="M10.5,8.1 C9.7,7.8 9.7,6.7 7.6,6.2 C5.5,5.7 5,6.5 4.1,6.4 C2.9,6.3 4.3,1.9 8.5,2.9 C12.6,4.1 11.5,8.6 10.5,8.1 Z" id="XMLID_29_" fill="#F2E74F"></path>
            </g>
            <g id="XMLID_33_" transform="translate(82.000000, 212.000000)">
                <circle id="XMLID_37_" fill="#979C9C" cx="6.7" cy="6.6" r="6.6"></circle>
                <circle id="XMLID_36_" fill="#808285" cx="6.7" cy="6.6" r="5.9"></circle>
                <circle id="XMLID_35_" fill="#F2C333" cx="6.7" cy="6.6" r="5.1"></circle>
                <path d="M10.1,7.2 C9.2,7.1 9,6.1 6.8,6.1 C4.6,6.1 4.4,7.1 3.5,7.2 C2.3,7.4 2.5,2.8 6.8,2.7 C11,2.8 11.2,7.4 10.1,7.2 Z" id="XMLID_34_" fill="#F2E74F"></path>
            </g>
            <g id="XMLID_38_" transform="translate(50.000000, 253.000000)">
                <circle id="XMLID_42_" fill="#979C9C" cx="6.8" cy="7.3" r="6.6"></circle>
                <circle id="XMLID_41_" fill="#808285" cx="6.8" cy="7.3" r="5.9"></circle>
                <circle id="XMLID_40_" fill="#F2C333" cx="6.8" cy="7.3" r="5.1"></circle>
                <path d="M9.4,9.5 C8.7,9 9,8 7.1,6.9 C5.2,5.8 4.5,6.5 3.7,6.2 C2.6,5.8 5,1.9 8.8,4 C12.4,6.2 10.3,10.2 9.4,9.5 Z" id="XMLID_39_" fill="#F2E74F"></path>
            </g>
            <g id="XMLID_43_" transform="translate(30.000000, 302.000000)">
                <circle id="XMLID_47_" fill="#979C9C" cx="6.7" cy="6.8" r="6.6"></circle>
                <circle id="XMLID_46_" fill="#808285" cx="6.7" cy="6.8" r="5.9"></circle>
                <circle id="XMLID_45_" fill="#F2C333" cx="6.7" cy="6.8" r="5.1"></circle>
                <path d="M9.7,8.2 C8.9,7.9 8.9,6.8 6.8,6.3 C4.7,5.7 4.2,6.6 3.3,6.5 C2.1,6.4 3.5,2 7.7,3 C11.8,4.3 10.8,8.7 9.7,8.2 Z" id="XMLID_44_" fill="#F2E74F"></path>
            </g>
            <g id="XMLID_48_" transform="translate(23.000000, 354.000000)">
                <circle id="XMLID_52_" fill="#979C9C" cx="6.8" cy="6.9" r="6.6"></circle>
                <circle id="XMLID_51_" fill="#808285" cx="6.8" cy="6.9" r="5.9"></circle>
                <circle id="XMLID_50_" fill="#F2C333" cx="6.8" cy="6.9" r="5.1"></circle>
                <path d="M10.1,7.5 C9.2,7.4 9,6.4 6.8,6.4 C4.6,6.4 4.4,7.4 3.5,7.5 C2.3,7.7 2.5,3.1 6.8,3 C11.1,3.1 11.3,7.7 10.1,7.5 Z" id="XMLID_49_" fill="#F2E74F"></path>
            </g>
            <g id="XMLID_53_" transform="translate(30.000000, 406.000000)">
                <circle id="XMLID_57_" fill="#979C9C" cx="6.7" cy="7" r="6.6"></circle>
                <circle id="XMLID_56_" fill="#808285" cx="6.7" cy="7" r="5.9"></circle>
                <circle id="XMLID_55_" fill="#F2C333" cx="6.7" cy="7" r="5.1"></circle>
                <path d="M9.3,9.1 C8.6,8.6 8.9,7.6 7,6.5 C5.1,5.4 4.4,6.1 3.6,5.8 C2.5,5.4 4.9,1.5 8.7,3.6 C12.3,5.8 10.2,9.9 9.3,9.1 Z" id="XMLID_54_" fill="#F2E74F"></path>
            </g>
            <g id="XMLID_58_" transform="translate(50.000000, 454.000000)">
                <circle id="XMLID_62_" fill="#979C9C" cx="6.8" cy="7.5" r="6.6"></circle>
                <circle id="XMLID_61_" fill="#808285" cx="6.8" cy="7.5" r="5.9"></circle>
                <circle id="XMLID_60_" fill="#F2C333" cx="6.8" cy="7.5" r="5.1"></circle>
                <path d="M9.8,8.9 C9,8.6 9,7.5 6.9,7 C4.8,6.4 4.3,7.3 3.4,7.2 C2.2,7.1 3.6,2.7 7.8,3.7 C11.9,4.9 10.9,9.4 9.8,8.9 Z" id="XMLID_59_" fill="#F2E74F"></path>
            </g>
            <g id="XMLID_63_" transform="translate(82.000000, 496.000000)">
                <circle id="XMLID_67_" fill="#979C9C" cx="6.7" cy="7.2" r="6.6"></circle>
                <circle id="XMLID_66_" fill="#808285" cx="6.7" cy="7.2" r="5.9"></circle>
                <circle id="XMLID_65_" fill="#F2C333" cx="6.7" cy="7.2" r="5.1"></circle>
                <path d="M10.1,7.7 C9.2,7.6 9,6.6 6.8,6.6 C4.6,6.6 4.4,7.6 3.5,7.7 C2.3,7.9 2.5,3.3 6.8,3.2 C11,3.3 11.2,7.9 10.1,7.7 Z" id="XMLID_64_" fill="#F2E74F"></path>
            </g>
            <g id="XMLID_68_" transform="translate(123.000000, 528.000000)">
                <circle id="XMLID_72_" fill="#979C9C" cx="7.4" cy="7.1" r="6.6"></circle>
                <circle id="XMLID_71_" fill="#808285" cx="7.4" cy="7.1" r="5.9"></circle>
                <circle id="XMLID_70_" fill="#F2C333" cx="7.4" cy="7.1" r="5.1"></circle>
                <path d="M10,9.3 C9.3,8.8 9.6,7.8 7.7,6.7 C5.8,5.6 5.1,6.3 4.3,6 C3.2,5.6 5.6,1.7 9.4,3.8 C13,6 10.9,10 10,9.3 Z" id="XMLID_69_" fill="#F2E74F"></path>
            </g>
            <g id="XMLID_73_" transform="translate(172.000000, 548.000000)">
                <circle id="XMLID_77_" fill="#979C9C" cx="6.9" cy="7.2" r="6.6"></circle>
                <circle id="XMLID_76_" fill="#808285" cx="6.9" cy="7.2" r="5.9"></circle>
                <circle id="XMLID_75_" fill="#F2C333" cx="6.9" cy="7.2" r="5.1"></circle>
                <path d="M10,8.6 C9.2,8.3 9.2,7.2 7.1,6.7 C5,6.1 4.5,7 3.6,6.9 C2.4,6.8 3.8,2.4 8,3.4 C12.1,4.7 11.1,9.1 10,8.6 Z" id="XMLID_74_" fill="#F2E74F"></path>
            </g>
            <g id="XMLID_78_" transform="translate(224.000000, 555.000000)">
                <circle id="XMLID_82_" fill="#979C9C" cx="7" cy="7.1" r="6.6"></circle>
                <circle id="XMLID_81_" fill="#808285" cx="7" cy="7.1" r="5.9"></circle>
                <circle id="XMLID_80_" fill="#F2C333" cx="7" cy="7.1" r="5.1"></circle>
                <path d="M10.3,7.6 C9.4,7.5 9.2,6.5 7,6.5 C4.8,6.5 4.6,7.5 3.7,7.6 C2.5,7.8 2.7,3.2 7,3.1 C11.3,3.3 11.5,7.9 10.3,7.6 Z" id="XMLID_79_" fill="#F2E74F"></path>
            </g>
            <g id="XMLID_83_" transform="translate(276.000000, 548.000000)">
                <circle id="XMLID_87_" fill="#979C9C" cx="7.1" cy="7.2" r="6.6"></circle>
                <circle id="XMLID_86_" fill="#808285" cx="7.1" cy="7.2" r="5.9"></circle>
                <circle id="XMLID_85_" fill="#F2C333" cx="7.1" cy="7.2" r="5.1"></circle>
                <path d="M10.4,6.9 C9.5,7 9,6.1 6.9,6.7 C4.8,7.3 4.8,8.3 4,8.6 C2.9,9.1 1.9,4.6 6.1,3.4 C10.2,2.4 11.6,6.8 10.4,6.9 Z" id="XMLID_84_" fill="#F2E74F"></path>
            </g>
            <g id="XMLID_88_" transform="translate(325.000000, 528.000000)">
                <circle id="XMLID_92_" fill="#979C9C" cx="6.6" cy="7.1" r="6.6"></circle>
                <circle id="XMLID_91_" fill="#808285" cx="6.6" cy="7.1" r="5.9"></circle>
                <circle id="XMLID_90_" fill="#F2C333" cx="6.6" cy="7.1" r="5.1"></circle>
                <path d="M9.8,5.9 C9,6.2 8.3,5.5 6.4,6.6 C4.5,7.7 4.8,8.7 4.1,9.2 C3.2,10 1.1,5.9 4.7,3.7 C8.4,1.7 10.9,5.6 9.8,5.9 Z" id="XMLID_89_" fill="#F2E74F"></path>
            </g>
            <g id="XMLID_93_" transform="translate(366.000000, 496.000000)">
                <circle id="XMLID_97_" fill="#979C9C" cx="7.3" cy="7.2" r="6.6"></circle>
                <circle id="XMLID_96_" fill="#808285" cx="7.3" cy="7.2" r="5.9"></circle>
                <circle id="XMLID_95_" fill="#F2C333" cx="7.3" cy="7.2" r="5.1"></circle>
                <path d="M10.6,7.7 C9.7,7.6 9.5,6.6 7.3,6.6 C5.1,6.6 4.9,7.6 4,7.7 C2.8,7.9 3,3.3 7.3,3.2 C11.6,3.3 11.7,7.9 10.6,7.7 Z" id="XMLID_94_" fill="#F2E74F"></path>
            </g>
            <g id="XMLID_98_" transform="translate(398.000000, 454.000000)">
                <circle id="XMLID_102_" fill="#979C9C" cx="7.2" cy="7.5" r="6.6"></circle>
                <circle id="XMLID_101_" fill="#808285" cx="7.2" cy="7.5" r="5.9"></circle>
                <circle id="XMLID_100_" fill="#F2C333" cx="7.2" cy="7.5" r="5.1"></circle>
                <path d="M10.6,7.2 C9.7,7.3 9.2,6.4 7.1,7 C5,7.6 5,8.6 4.2,8.9 C3.1,9.4 2.1,4.9 6.3,3.7 C10.4,2.7 11.8,7.1 10.6,7.2 Z" id="XMLID_99_" fill="#F2E74F"></path>
            </g>
            <g id="XMLID_103_" transform="translate(418.000000, 406.000000)">
                <circle id="XMLID_107_" fill="#979C9C" cx="7.3" cy="7" r="6.6"></circle>
                <circle id="XMLID_106_" fill="#808285" cx="7.3" cy="7" r="5.9"></circle>
                <circle id="XMLID_105_" fill="#F2C333" cx="7.3" cy="7" r="5.1"></circle>
                <path d="M10.5,5.8 C9.7,6.1 9,5.4 7.1,6.5 C5.2,7.6 5.5,8.6 4.8,9.1 C3.9,9.9 1.8,5.8 5.4,3.6 C9.1,1.5 11.6,5.4 10.5,5.8 Z" id="XMLID_104_" fill="#F2E74F"></path>
            </g>
            <g id="XMLID_108_" transform="translate(425.000000, 354.000000)">
                <circle id="XMLID_112_" fill="#979C9C" cx="7.2" cy="6.9" r="6.6"></circle>
                <circle id="XMLID_111_" fill="#808285" cx="7.2" cy="6.9" r="5.9"></circle>
                <circle id="XMLID_110_" fill="#F2C333" cx="7.2" cy="6.9" r="5.1"></circle>
                <path d="M10.5,7.5 C9.6,7.4 9.4,6.4 7.2,6.4 C5,6.4 4.8,7.4 3.9,7.5 C2.7,7.7 2.9,3.1 7.2,3 C11.5,3.1 11.7,7.7 10.5,7.5 Z" id="XMLID_109_" fill="#F2E74F"></path>
            </g>
            <g id="XMLID_113_" transform="translate(418.000000, 302.000000)">
                <circle id="XMLID_117_" fill="#979C9C" cx="7.3" cy="6.8" r="6.6"></circle>
                <circle id="XMLID_116_" fill="#808285" cx="7.3" cy="6.8" r="5.9"></circle>
                <circle id="XMLID_115_" fill="#F2C333" cx="7.3" cy="6.8" r="5.1"></circle>
                <path d="M10.7,6.5 C9.8,6.6 9.3,5.7 7.2,6.3 C5.1,6.9 5.1,7.9 4.3,8.2 C3.2,8.7 2.2,4.2 6.4,3 C10.5,2 11.9,6.4 10.7,6.5 Z" id="XMLID_114_" fill="#F2E74F"></path>
            </g>
            <g id="XMLID_118_" transform="translate(398.000000, 253.000000)">
                <circle id="XMLID_122_" fill="#979C9C" cx="7.2" cy="7.3" r="6.6"></circle>
                <circle id="XMLID_121_" fill="#808285" cx="7.2" cy="7.3" r="5.9"></circle>
                <circle id="XMLID_120_" fill="#F2C333" cx="7.2" cy="7.3" r="5.1"></circle>
                <path d="M10.4,6.1 C9.6,6.4 8.9,5.7 7,6.8 C5.1,7.9 5.4,8.9 4.7,9.4 C3.8,10.2 1.7,6.1 5.3,3.9 C9,1.9 11.5,5.7 10.4,6.1 Z" id="XMLID_119_" fill="#F2E74F"></path>
            </g>
            <g id="XMLID_123_" transform="translate(366.000000, 212.000000)">
                <circle id="XMLID_127_" fill="#979C9C" cx="7.3" cy="6.6" r="6.6"></circle>
                <circle id="XMLID_126_" fill="#808285" cx="7.3" cy="6.6" r="5.9"></circle>
                <circle id="XMLID_125_" fill="#F2C333" cx="7.3" cy="6.6" r="5.1"></circle>
                <path d="M10.6,7.2 C9.7,7.1 9.5,6.1 7.3,6.1 C5.1,6.1 4.9,7.1 4,7.2 C2.8,7.4 3,2.8 7.3,2.7 C11.6,2.8 11.7,7.4 10.6,7.2 Z" id="XMLID_124_" fill="#F2E74F"></path>
            </g>
            <g id="XMLID_128_" transform="translate(325.000000, 180.000000)">
                <circle id="XMLID_132_" fill="#979C9C" cx="6.6" cy="6.7" r="6.6"></circle>
                <circle id="XMLID_131_" fill="#808285" cx="6.6" cy="6.7" r="5.9"></circle>
                <circle id="XMLID_130_" fill="#F2C333" cx="6.6" cy="6.7" r="5.1"></circle>
                <path d="M10,6.3 C9.1,6.4 8.6,5.5 6.5,6.1 C4.4,6.7 4.4,7.7 3.6,8 C2.5,8.5 1.5,4 5.7,2.8 C9.8,1.9 11.1,6.2 10,6.3 Z" id="XMLID_129_" fill="#F2E74F"></path>
            </g>
            <g id="XMLID_133_" transform="translate(276.000000, 160.000000)">
                <circle id="XMLID_137_" fill="#979C9C" cx="7.1" cy="6.6" r="6.6"></circle>
                <circle id="XMLID_136_" fill="#808285" cx="7.1" cy="6.6" r="5.9"></circle>
                <circle id="XMLID_135_" fill="#F2C333" cx="7.1" cy="6.6" r="5.1"></circle>
                <path d="M10.2,5.4 C9.4,5.7 8.7,5 6.8,6.1 C4.9,7.2 5.2,8.2 4.5,8.7 C3.6,9.5 1.5,5.4 5.1,3.2 C8.9,1.1 11.3,5 10.2,5.4 Z" id="XMLID_134_" fill="#F2E74F"></path>
            </g>
            <rect id="XMLID_499_" fill="#A7A9AC" x="62.2" y="681.6" width="337.7" height="16.2"></rect>
            <path d="M392.4,686.4 L69.6,686.4 L63.1,695.4 C60.8,698.6 63.1,703.1 67,703.1 L395,703.1 C399,703.1 401.2,698.6 398.9,695.4 L392.4,686.4 Z" id="XMLID_505_" fill="#A7A9AC"></path>
            <polygon id="XMLID_503_" fill="#C9C9C9" points="156.8 660.7 149.2 635 156.8 635"></polygon>
            <circle id="XMLID_496_" fill="#9C9C9D" cx="231" cy="118.4" r="4"></circle>
            <path d="M231,115.8 C229.1,115.8 227.4,117.2 227.1,119.1 C227.4,121 229.1,122.4 231,122.4 C232.9,122.4 234.6,121 234.9,119.1 C234.6,117.3 232.9,115.8 231,115.8 Z" id="XMLID_962_" fill="#A7A9AC"></path>
        </g>
    </g>
</svg>