<?xml version="1.0" encoding="UTF-8"?>
<svg width="247px" height="112px" viewBox="0 0 247 112" version="1.1" xmlns="http://www.w3.org/2000/svg" xmlns:xlink="http://www.w3.org/1999/xlink">
    <!-- Generator: Sketch 49.3 (51167) - http://www.bohemiancoding.com/sketch -->
    <title>Fortune_wheel</title>
    <desc>Created with Sketch.</desc>
    <defs></defs>
    <g id="desktop" stroke="none" stroke-width="1" fill="none" fill-rule="evenodd">
        <g id="Fortune_wheel">
            <path d="M123.075148,98 C153.575148,98 183.375148,100.9 212.275148,106.2 C219.275148,107.5 226.075148,103.2 227.875148,96.3 L245.675148,29.9 C247.675148,22.5 243.175148,14.9 235.675148,13.1 C199.475148,4.6 161.775148,0 123.075148,0 C84.3751476,0 46.6751476,4.6 10.4751476,13.1 C2.97514764,14.9 -1.52485236,22.5 0.475147638,29.9 L18.2751476,96.3 C20.0751476,103.2 26.8751476,107.5 33.8751476,106.2 C62.7751476,100.8 92.5751476,98 123.075148,98 Z" id="XMLID_495_" fill="#F2E74F" fill-rule="nonzero"></path>
            <path d="M123.2,98 C98,98 73.2,100 49,103.7 L49,111.5 C73.6,107.8 98.4,105.9 123.2,105.9 C148,105.9 172.8,107.8 197.4,111.5 L197.4,103.6 C173.2,99.9 148.4,98 123.2,98 Z" id="XMLID_497_" fill="#9C9C9D" fill-rule="nonzero"></path>
            <path d="M214.84083,102.6 C214.24083,102.6 213.64083,102.5 213.04083,102.4 C183.44083,96.9 153.14083,94.1 123.14083,94.1 C93.1408303,94.1 62.8408303,96.9 33.2408303,102.4 C32.6408303,102.5 32.0408303,102.6 31.4408303,102.6 C31.4408303,102.6 31.4408303,102.6 31.4408303,102.6 C27.0408303,102.6 23.2408303,99.6 22.1408303,95.4 L4.34083032,29 C3.64083032,26.4 4.04083032,23.8 5.34083032,21.5 C6.74083032,19.2 8.84083032,17.7 11.4408303,17 C47.8408303,8.4 85.4408303,4 123.14083,4 C160.84083,4 198.34083,8.4 234.84083,17 C237.44083,17.6 239.54083,19.2 240.94083,21.5 C242.34083,23.8 242.64083,26.4 241.94083,29 L224.24083,95.4 C223.04083,99.6 219.24083,102.6 214.84083,102.6 Z" id="XMLID_250_" fill="#F2C333" fill-rule="nonzero"></path>
            <path d="M214.8,98.7 C214.5,98.7 214.1,98.7 213.7,98.6 C183.8,93.1 153.4,90.2 123.1,90.2 C92.8,90.2 62.4,93 32.5,98.6 C32.2,98.7 31.8,98.7 31.4,98.7 C28.8,98.7 26.5,96.9 25.8,94.4 L8.2,28 C7.8,26.5 8,24.9 8.8,23.5 C9.6,22.2 10.9,21.2 12.4,20.9 C48.5,12.3 85.8,8 123.2,8 C160.6,8 197.8,12.3 234,20.9 C235.5,21.3 236.8,22.2 237.6,23.5 C238.4,24.9 238.6,26.5 238.2,28 L220.4,94.4 C219.7,96.9 217.4,98.7 214.8,98.7 Z" id="XMLID_382_" fill="#DDD4AB" fill-rule="nonzero"></path>
            <path d="M31.1,98.7 C31.4,98.7 31.8,98.7 32.2,98.6 C62.1,93.1 92.5,90.2 122.8,90.2 C153.1,90.2 183.5,93 213.4,98.6 C213.7,98.7 214.1,98.7 214.5,98.7 C217.1,98.7 219.4,96.9 220.1,94.4 L237.8,28.5 C237.7,28.1 237.5,27.8 237.3,27.5 C236.5,26.2 235.2,25.2 233.7,24.9 C197.6,16.3 160.3,12 122.9,12 C85.5,12 48.3,16.3 12.1,24.9 C10.6,25.3 9.3,26.2 8.5,27.5 C8.3,27.8 8.1,28.2 8,28.6 L25.7,94.5 C26.2,96.9 28.5,98.7 31.1,98.7 Z" id="XMLID_498_" fill="#F2EABC" fill-rule="nonzero"></path>
            <path d="M34.9164722,62.765185 L32.7427108,48.9349731 L40.645689,47.6928237 L41.002807,49.96493 L35.5299946,50.8251184 L36.1448585,54.7370927 L41.0249476,53.9700654 L41.3820655,56.2421717 L36.5019765,57.0091989 L37.346638,62.3832241 L34.9164722,62.765185 Z M44.9934868,54.2416673 C44.716321,52.207116 45.1616756,50.4139401 46.3295642,48.8620858 C47.4974528,47.3102315 49.1316767,46.3912357 51.2322848,46.105071 C53.3196816,45.820706 55.1370302,46.2459472 56.684385,47.3808073 C58.2317399,48.5156675 59.1502857,50.1465885 59.44005,52.2736195 C59.7226152,54.3478049 59.268702,56.152239 58.0782967,57.6869759 C56.8878914,59.2217128 55.2556205,60.1303502 53.1814351,60.4129154 C51.0940383,60.6972804 49.2799925,60.2715893 47.7392433,59.1358292 C46.1984942,58.0000692 45.2832512,56.3686982 44.9934868,54.2416673 Z M47.5696915,53.8907123 C47.7586683,55.2779063 48.3624736,56.3764452 49.3811256,57.1863619 C50.3997776,57.9962786 51.563049,58.3121432 52.8709749,58.1339651 C54.297803,57.9395891 55.3676699,57.3228693 56.0806076,56.2837873 C56.7935452,55.2447053 57.0546219,54.0249799 56.8638453,52.6245745 C56.6694693,51.1977463 56.0643142,50.089299 55.0483618,49.2991994 C54.0324095,48.5090997 52.8638823,48.2040434 51.5427451,48.3840213 C50.2083965,48.5657989 49.1640521,49.1723136 48.4096805,50.2035835 C47.655309,51.2348534 47.3753155,52.4638841 47.5696915,53.8907123 Z M66.913448,58.7203581 L64.4670806,58.9789823 L62.9952353,45.0565662 C63.2869445,45.0257274 64.0387096,44.9395488 65.250553,44.7980278 C66.4623964,44.6565069 67.1213463,44.5801405 67.2274224,44.5689264 C70.595338,44.2128782 72.4306588,45.4668624 72.7334399,48.3309166 C72.8469828,49.404937 72.6673316,50.3054724 72.1944808,51.03255 C71.7216299,51.7596277 71.146452,52.279641 70.4689297,52.5926057 L75.426011,57.8204299 L72.4625253,58.1337226 L68.0730256,53.3285699 L66.3625573,53.5093966 L66.913448,58.7203581 Z M67.3498905,46.8687963 C67.1112193,46.894028 66.55573,46.9661606 65.6834059,47.085196 L66.1207542,51.2221425 L67.7118874,51.0539317 C68.4676795,50.9740311 69.0808368,50.7181527 69.5513777,50.2862887 C70.0219185,49.8544247 70.221441,49.3003835 70.149951,48.6241485 C70.006971,47.2716785 69.0736269,46.6865669 67.3498905,46.8687963 Z M75.4224799,46.2264038 L75.2348707,43.9340681 L86.7364157,42.9927591 L86.9240249,45.2850948 L82.3991537,45.6554191 L83.3535137,57.3164309 L80.9017112,57.5170913 L79.9473512,45.8560794 L75.4224799,46.2264038 Z M101.738322,42.2257793 L102.219353,50.411658 C102.33746,52.4215342 101.900089,53.9564863 100.907227,55.0165604 C99.9143653,56.0766345 98.6193274,56.653593 97.0220748,56.7474531 C95.2251656,56.8530457 93.7532416,56.4086321 92.6062585,55.4141989 C91.4592755,54.4197657 90.8275219,52.9309438 90.710979,50.9476885 L90.2381611,42.9015687 L92.6939247,42.7572595 L93.1362382,50.2842748 C93.2160193,51.6419395 93.568285,52.6930743 94.1930459,53.4377106 C94.8178067,54.182347 95.715833,54.5202447 96.8871516,54.451414 C98.9635799,54.3293958 99.9192611,52.8641575 99.7542238,50.055655 L99.3025243,42.3689153 L101.738322,42.2257793 Z M119.470895,55.8382774 L117.511784,55.8973076 L109.523138,46.4336121 L109.815277,56.1292119 L107.516321,56.198482 L107.094676,42.2048329 L109.053787,42.1458027 L117.043638,51.64948 L116.750294,41.9138984 L119.049251,41.8446283 L119.470895,55.8382774 Z M124.602754,56.0001516 L124.603836,42.0001516 L132.703836,42.0007774 L132.703658,44.3007774 L127.063658,44.3003417 L127.063389,47.7803416 L132.103389,47.780731 L132.103212,50.080731 L127.063212,50.0803416 L127.062932,53.7003416 L132.902932,53.7007928 L132.902754,56.0007928 L124.602754,56.0001516 Z M160.94782,42.93637 L156.497564,56.7998192 L154.198765,56.7255055 L151.14751,46.5015805 L147.502263,56.5090266 L145.183474,56.4340667 L141.458001,42.3063192 L144.21656,42.3954956 L146.712631,52.4614 L150.153458,42.5874188 L152.592184,42.6662559 L155.467411,52.7644277 L158.589052,42.8601177 L160.94782,42.93637 Z M172.593915,58.1019892 L173.00637,52.1362302 L166.621611,51.6948065 L166.209156,57.6605655 L163.755014,57.4908933 L164.720628,43.5242334 L167.17477,43.6939056 L166.780248,49.4002838 L173.165007,49.8417075 L173.559529,44.1353293 L175.993718,44.3036221 L175.028104,58.270282 L172.593915,58.1019892 Z M180.141525,58.9148773 L181.505143,44.9814447 L189.566629,45.7703951 L189.342606,48.0594591 L183.729423,47.5101158 L183.390466,50.9735691 L188.406502,51.4644716 L188.182479,53.7535355 L183.166443,53.262633 L182.813851,56.8654206 L188.626083,57.4342441 L188.40206,59.7233081 L180.141525,58.9148773 Z M192.799536,60.3364177 L194.467423,46.4361243 L202.509735,47.4011158 L202.235725,49.6847354 L196.635893,49.0128154 L196.221304,52.4680312 L201.22541,53.0684703 L200.9514,55.3520899 L195.947294,54.7516508 L195.516026,58.3458695 L201.314434,59.0416164 L201.040424,61.325236 L192.799536,60.3364177 Z M205.446635,62.0357881 L207.415329,48.1748991 L209.850885,48.5208268 L208.205619,60.1045697 L214.443019,60.990482 L214.119591,63.267628 L205.446635,62.0357881 Z" id="Fortune-wheel" fill="#766C66"></path>
        </g>
    </g>
</svg>