<?xml version="1.0" encoding="UTF-8"?>
<svg width="247px" height="112px" viewBox="0 0 247 112" version="1.1" xmlns="http://www.w3.org/2000/svg" xmlns:xlink="http://www.w3.org/1999/xlink">
    <!-- Generator: Sketch 49.3 (51167) - http://www.bohemiancoding.com/sketch -->
    <title>you_win</title>
    <desc>Created with Sketch.</desc>
    <defs></defs>
    <g id="desktop" stroke="none" stroke-width="1" fill="none" fill-rule="evenodd">
        <g id="you_win">
            <path d="M123.075148,98 C153.575148,98 183.375148,100.9 212.275148,106.2 C219.275148,107.5 226.075148,103.2 227.875148,96.3 L245.675148,29.9 C247.675148,22.5 243.175148,14.9 235.675148,13.1 C199.475148,4.6 161.775148,0 123.075148,0 C84.3751476,0 46.6751476,4.6 10.4751476,13.1 C2.97514764,14.9 -1.52485236,22.5 0.475147638,29.9 L18.2751476,96.3 C20.0751476,103.2 26.8751476,107.5 33.8751476,106.2 C62.7751476,100.8 92.5751476,98 123.075148,98 Z" id="XMLID_495_" fill="#F2E74F" fill-rule="nonzero"></path>
            <path d="M123.2,98 C98,98 73.2,100 49,103.7 L49,111.5 C73.6,107.8 98.4,105.9 123.2,105.9 C148,105.9 172.8,107.8 197.4,111.5 L197.4,103.6 C173.2,99.9 148.4,98 123.2,98 Z" id="XMLID_497_" fill="#9C9C9D" fill-rule="nonzero"></path>
            <path d="M214.84083,102.6 C214.24083,102.6 213.64083,102.5 213.04083,102.4 C183.44083,96.9 153.14083,94.1 123.14083,94.1 C93.1408303,94.1 62.8408303,96.9 33.2408303,102.4 C32.6408303,102.5 32.0408303,102.6 31.4408303,102.6 C31.4408303,102.6 31.4408303,102.6 31.4408303,102.6 C27.0408303,102.6 23.2408303,99.6 22.1408303,95.4 L4.34083032,29 C3.64083032,26.4 4.04083032,23.8 5.34083032,21.5 C6.74083032,19.2 8.84083032,17.7 11.4408303,17 C47.8408303,8.4 85.4408303,4 123.14083,4 C160.84083,4 198.34083,8.4 234.84083,17 C237.44083,17.6 239.54083,19.2 240.94083,21.5 C242.34083,23.8 242.64083,26.4 241.94083,29 L224.24083,95.4 C223.04083,99.6 219.24083,102.6 214.84083,102.6 Z" id="XMLID_250_" fill="#F2C333" fill-rule="nonzero"></path>
            <path d="M214.8,98.7 C214.5,98.7 214.1,98.7 213.7,98.6 C183.8,93.1 153.4,90.2 123.1,90.2 C92.8,90.2 62.4,93 32.5,98.6 C32.2,98.7 31.8,98.7 31.4,98.7 C28.8,98.7 26.5,96.9 25.8,94.4 L8.2,28 C7.8,26.5 8,24.9 8.8,23.5 C9.6,22.2 10.9,21.2 12.4,20.9 C48.5,12.3 85.8,8 123.2,8 C160.6,8 197.8,12.3 234,20.9 C235.5,21.3 236.8,22.2 237.6,23.5 C238.4,24.9 238.6,26.5 238.2,28 L220.4,94.4 C219.7,96.9 217.4,98.7 214.8,98.7 Z" id="XMLID_382_" fill="#DDD4AB" fill-rule="nonzero"></path>
            <path d="M31.1,98.7 C31.4,98.7 31.8,98.7 32.2,98.6 C62.1,93.1 92.5,90.2 122.8,90.2 C153.1,90.2 183.5,93 213.4,98.6 C213.7,98.7 214.1,98.7 214.5,98.7 C217.1,98.7 219.4,96.9 220.1,94.4 L237.8,28.5 C237.7,28.1 237.5,27.8 237.3,27.5 C236.5,26.2 235.2,25.2 233.7,24.9 C197.6,16.3 160.3,12 122.9,12 C85.5,12 48.3,16.3 12.1,24.9 C10.6,25.3 9.3,26.2 8.5,27.5 C8.3,27.8 8.1,28.2 8,28.6 L25.7,94.5 C26.2,96.9 28.5,98.7 31.1,98.7 Z" id="XMLID_498_" fill="#F2EABC" fill-rule="nonzero"></path>
            <path d="M80.9831081,45.3618222 L76.7794739,53.947593 L77.3198195,59.7625415 L74.870372,59.9901529 L74.3300264,54.1752043 L68.6562137,46.5072809 L71.4442028,46.2482111 L75.4514709,51.7610871 L78.3345185,45.6079386 L80.9831081,45.3618222 Z M83.3466096,52.3448046 C83.2032632,50.2964707 83.7650811,48.5363056 85.0320803,47.0642565 C86.2990794,45.5922074 87.9899728,44.7821947 90.104811,44.6341942 C92.2063484,44.4871245 93.9919513,45.030455 95.4616734,46.264202 C96.9313955,47.497949 97.7411754,49.1855171 97.8910376,51.3269571 C98.0371765,53.4151936 97.4660811,55.1860323 96.1777344,56.6395264 C94.8893877,58.0930204 93.2011214,58.8928249 91.1128849,59.0389638 C89.0113476,59.1860335 87.2290698,58.6424703 85.7659982,57.4082579 C84.3029265,56.1740455 83.4964717,54.4862446 83.3466096,52.3448046 Z M85.9402661,52.1632955 C86.0380023,53.5598867 86.5685782,54.6956058 87.5320098,55.5704867 C88.4954414,56.4453676 89.6355331,56.8367265 90.9523191,56.7445753 C92.388813,56.6440466 93.4967672,56.0987065 94.276215,55.1085385 C95.0556628,54.1183705 95.396048,52.9183584 95.297381,51.5084663 C95.1968524,50.0719724 94.6655783,48.9262778 93.703543,48.0713482 C92.7415077,47.2164186 91.5954637,46.8355006 90.2653768,46.9285827 C88.921989,47.0225956 87.8401707,47.5594238 87.0198895,48.5390834 C86.1996084,49.5187429 85.8397375,50.7268016 85.9402661,52.1632955 Z M113.258796,43.9245233 L113.578271,52.1182975 C113.656712,54.1301123 113.18915,55.6561389 112.175571,56.696423 C111.161993,57.7367072 109.855827,58.2880094 108.257034,58.3503463 C106.458391,58.4204752 104.995519,57.9471151 103.868374,56.9302517 C102.741229,55.9133883 102.138965,54.412395 102.061563,52.4272267 L101.747543,44.3733462 L104.205675,44.2775038 L104.499436,51.8117791 C104.552422,53.1707534 104.883886,54.2286319 105.493838,54.9854465 C106.10379,55.7422611 106.994976,56.0978062 108.167425,56.0520925 C110.245856,55.9710546 111.230252,54.5249517 111.120643,51.7137403 L110.820649,44.0195865 L113.258796,43.9245233 Z M141.895094,43.9891125 L137.902936,57.9913508 L135.602937,57.9926391 L132.217269,47.8745338 L128.902938,57.9963918 L126.582938,57.9976913 L122.395097,44.0000347 L125.155097,43.9984888 L127.980686,53.9769077 L131.095096,43.9951618 L133.535095,43.9937951 L136.740696,53.9920012 L139.535095,43.9904344 L141.895094,43.9891125 Z M145.480942,58.4577243 L145.990883,44.4670145 L148.44925,44.5566183 L147.93931,58.5473281 L145.480942,58.4577243 Z M165.317126,59.4402162 L163.359658,59.3406181 L156.162515,49.2618715 L155.669606,58.9493397 L153.372577,58.8324644 L154.083993,44.8505515 L156.04146,44.9501496 L163.236571,55.0688445 L163.731513,45.341428 L166.028541,45.4583033 L165.317126,59.4402162 Z M170.755744,55.1846837 L171.493872,46.0544718 L173.925937,46.2510909 L173.187809,55.3813027 L170.755744,55.1846837 Z M170.167642,58.4880359 C170.197726,58.1159148 170.371312,57.7888424 170.688405,57.5068089 C171.005497,57.2247753 171.403259,57.1031001 171.8817,57.1417794 C172.293691,57.1750866 172.626871,57.3558545 172.88125,57.6840884 C173.135629,58.0123222 173.247775,58.3624945 173.217691,58.7346156 C173.18331,59.1598969 173.013683,59.5207311 172.708806,59.8171291 C172.403929,60.1135271 172.0455,60.2450705 171.633509,60.2117633 C171.155067,60.173084 170.782555,59.982448 170.51596,59.6398496 C170.249366,59.2972513 170.133261,58.9133172 170.167642,58.4880359 Z" id="YOU-WIN!" fill="#766C66"></path>
        </g>
    </g>
</svg>